<?xml version="1.0" encoding="UTF-8" standalone="no"?>
<svg
   version="1.1"
   viewBox="0 0 474.2389 101.10237"
   id="svg43"
   sodipodi:docname="BlueSide.svg"
   width="474.23889"
   height="101.10237"
   inkscape:version="1.1.2 (b8e25be833, 2022-02-05)"
   xmlns:inkscape="http://www.inkscape.org/namespaces/inkscape"
   xmlns:sodipodi="http://sodipodi.sourceforge.net/DTD/sodipodi-0.dtd"
   xmlns="http://www.w3.org/2000/svg"
   xmlns:svg="http://www.w3.org/2000/svg">
  <sodipodi:namedview
     id="namedview45"
     pagecolor="#ffffff"
     bordercolor="#111111"
     borderopacity="1"
     inkscape:pageshadow="0"
     inkscape:pageopacity="0"
     inkscape:pagecheckerboard="1"
     showgrid="false"
     inkscape:zoom="2.5113389"
     inkscape:cx="248.67214"
     inkscape:cy="56.941738"
     inkscape:window-width="1920"
     inkscape:window-height="1094"
     inkscape:window-x="-11"
     inkscape:window-y="-11"
     inkscape:window-maximized="1"
     inkscape:current-layer="g41" />
  <defs
     id="defs4">
    <style
       id="style2">
      .cls-1 {
        fill: #469ee8;
      }

      .cls-2 {
        fill: #fff;
      }

      .cls-3 {
        fill: #343434;
      }

      .cls-4 {
        fill: #fefefe;
      }

      .cls-5 {
        fill: #353535;
      }

      .cls-6 {
        fill: #333;
      }

      .cls-7 {
        fill: #fdfdfd;
      }
    </style>
  </defs>
  <!-- Generator: Adobe Illustrator 28.7.1, SVG Export Plug-In . SVG Version: 1.2.0 Build 142)  -->
  <g
     id="g41"
     transform="translate(-64.65,-46.755556)">
    <path
       class="cls-3"
       d="M 96,123.6 C 90.3,118.7 84.5,113.9 79,109 73.6,104.2 71.4,98.1 72.5,91 c 1.8,-11 3.7,-21.9 5.6,-32.9 1,-5.7 5.2,-10 10.9,-11 1.2,-0.2 2.4,-0.3 3.6,-0.3 11.1,0 22.1,-0.1 33.2,0 7,0 10.7,6 9.9,11.3 -3.3,22.3 -6.5,44.6 -9.8,66.9 -0.8,5.6 -1.6,11.3 -2.5,16.9 -0.1,0.9 -0.2,1.9 -1.2,2.4 -0.9,0.4 -1.6,0.3 -2.3,-0.4 -2.6,-2.2 -5.3,-4.5 -7.9,-6.7 -5.4,-4.6 -10.7,-9.1 -16.1,-13.8 z"
       id="path8" />
    <path
       class="cls-3"
       d="m 188.4,119.7 c 0.8,8.1 -1.8,14.7 -8.2,19.7 -4.2,3.4 -9.1,5.1 -14.4,5.9 -2.8,0.4 -5.6,0.6 -8.4,0.6 -7.1,0 -14.1,0 -21.2,0 H 135 c 3.6,-24 7.2,-47.8 10.7,-71.8 0.4,0 0.8,0 1.1,0 7.9,0 15.9,0 23.8,0 4.1,0 8.2,0.6 11.9,2.4 5.8,2.9 8.4,8.3 7.6,14.7 -1.1,8.7 -6.2,13.8 -14.2,16.4 -0.2,0 -0.5,0.2 -0.9,0.3 7,1.2 12,4.4 13.3,11.7 m -41.9,17.1 c -0.2,0.8 0.3,0.7 0.8,0.7 4.1,0 8.2,0 12.3,0 3,0 6,-0.4 8.8,-1.3 6,-1.9 9.6,-6.2 10,-12.1 0.4,-4.7 -1.3,-7.7 -5.3,-9.3 -1.4,-0.6 -2.8,-1.1 -4.3,-1.2 -6.3,-0.3 -12.5,-0.5 -18.8,-0.7 -1.2,8 -2.4,15.8 -3.6,23.8 M 179.9,90 c -0.3,-2.5 -1.7,-4.3 -4,-5.5 -2.2,-1.1 -4.6,-1.7 -7,-1.8 -4.2,-0.1 -8.3,-0.1 -12.5,-0.2 -0.6,0 -1.2,0 -1.9,0 -1.1,7.3 -2.2,14.5 -3.3,21.9 h 1.2 c 3.8,0 7.5,0 11.3,0 1.9,0 3.7,-0.2 5.5,-0.6 7,-1.5 11.1,-6.9 10.5,-13.8 z"
       id="path10" />
    <path
       class="cls-3"
       d="m 447.6,147.1 c -13.2,-1.9 -20.2,-13 -20.4,-24.3 0,-6 1.2,-11.6 4.9,-16.5 5,-6.8 11.9,-9.6 20.2,-9.3 6.3,0.2 11.4,2.9 15.4,7.8 0.1,0.2 0.3,0.3 0.4,0.5 0,0 0,0 0.2,0 V 70 h 9.5 v 76.1 h -9.1 v -7.6 c -0.2,0.2 -0.4,0.3 -0.5,0.4 -4,5.8 -9.7,8.2 -16.4,8.5 -1.4,0 -2.8,-0.1 -4.3,-0.2 m 12.9,-9.8 c 0.8,-0.5 1.6,-1 2.4,-1.6 7.9,-6.5 8.3,-19.3 0.9,-26.6 -6.4,-6.4 -19,-6.1 -24.2,3.2 -2.5,4.5 -3,9.3 -1.9,14.2 2.7,12.2 14.6,15.1 22.8,10.8 z"
       id="path12" />
    <path
       class="cls-3"
       d="m 388.5,136.1 c -3.5,6.5 -9.1,9.8 -16.1,11.1 -8.3,1.6 -16.2,0.3 -23.5,-4.1 -2.5,-1.5 -4.6,-3.4 -6.4,-5.7 2.6,-2.2 5.1,-4.3 7.5,-6.3 1.9,1.7 3.6,3.6 5.7,5 6.1,3.9 12.5,4.5 18.9,1 6.6,-3.6 6.9,-10.7 4.7,-14.9 -1.4,-2.6 -3.7,-4.3 -6.3,-5.4 -3.8,-1.5 -7.6,-2.7 -11.4,-4.1 -2.3,-0.9 -4.7,-1.7 -6.9,-2.9 -6.8,-3.7 -10,-9.6 -9.7,-17.3 0.3,-8.1 4.5,-13.8 11.7,-16.9 9.8,-4.2 19.6,-3.7 28.9,1.8 1.6,1 3,2.3 4.3,3.3 -2.3,2.5 -4.5,5 -6.8,7.4 -2.3,-3 -5.1,-5 -8.5,-6 -5.6,-1.5 -10.9,-1.2 -15.6,2.5 -5.1,4 -5.6,13.2 1.3,16.8 3.2,1.7 6.7,2.7 10.1,4 3.3,1.3 6.7,2.3 9.9,3.8 4.4,2.1 7.9,5.4 9.5,10.2 1.8,5.6 1.5,11.3 -1.2,16.7 z"
       id="path14" />
    <path
       class="cls-5"
       d="m 327.2,136.7 c 0.3,0.2 0.6,0.4 0.9,0.6 -4.4,4.9 -9.5,8.1 -15.7,9.4 -5.1,1 -10.2,1 -15.1,-0.7 -8,-2.9 -12.4,-8.8 -13,-17.2 -0.7,-11.7 3.7,-21.2 13.7,-27.7 6.4,-4.2 13.6,-5.4 21.1,-3.7 7.5,1.7 11.8,6.6 13.2,14.1 0.8,4.2 0.3,8.3 -0.4,12.5 -0.1,0.8 -0.5,0.9 -1.2,0.9 -11.8,0 -23.7,0 -35.5,0 -0.4,0 -0.8,0 -1.2,0 -1,4.2 1.3,9.4 5.1,12.1 4,2.8 8.5,3 13.1,1.8 3.8,-1 6.8,-3.1 9.4,-5.9 0.2,-0.2 0.4,-0.4 0.6,-0.7 1.7,1.6 3.4,3.1 5.1,4.7 m -30.8,-23.5 c -0.6,1.4 -1.2,2.8 -1.8,4.2 h 28.6 c 0,-0.9 0,-1.7 0,-2.5 -0.2,-4.5 -1.8,-8.2 -6.2,-10 -2.6,-1.1 -5.4,-1.2 -8.2,-0.6 -5.4,1.1 -9.5,4.1 -12.4,8.9 z"
       id="path16" />
    <path
       class="cls-3"
       d="m 532,102.7 c 4.2,4.2 6.2,9.3 6.8,15 0.2,2.3 0,4.7 0,7.2 h -37.7 c -0.3,3.8 2.3,10.2 8.9,13.1 5.6,2.5 14.5,2.2 20.4,-5.9 2.2,1.8 4.4,3.5 6.7,5.4 -1,1.1 -1.9,2.2 -2.9,3.2 -5.7,5.4 -12.7,7.1 -20.3,6.5 -5.9,-0.4 -11.1,-2.5 -15.4,-6.7 -4.9,-4.8 -7.1,-10.7 -7.3,-17.5 -0.2,-5.7 1.1,-11.2 4.4,-15.9 4.8,-6.8 11.5,-10 19.7,-10.3 5.7,-0.2 11,1.2 15.6,4.9 0.3,0.3 0.6,0.6 1,0.9 m -9.5,15.2 h 6.8 c 0.2,-4.1 -1.8,-9.3 -6,-11.7 -7,-4 -18.5,-1.5 -21.7,8.7 -0.3,0.9 -0.4,1.9 -0.6,2.9 h 21.4 z"
       id="path18" />
    <path
       class="cls-5"
       d="m 269.2,135.5 c -0.4,3.5 -0.8,6.9 -1.2,10.4 h -9 c 0.2,-2.6 0.5,-5.1 0.7,-8 -0.4,0.6 -0.6,0.9 -0.8,1.2 -4.8,6.6 -14.2,9.8 -22.1,7.5 -5.4,-1.6 -8.3,-5.5 -9.2,-10.9 -0.6,-3.7 0,-7.4 0.5,-11 1.3,-8.6 2.6,-17.2 3.9,-25.8 0,-0.2 0,-0.5 0.2,-0.8 h 9.5 c -0.7,4.5 -1.4,9 -2,13.4 -0.8,5.5 -1.6,11 -2.2,16.5 -0.2,1.7 0,3.6 0.4,5.3 0.8,3.7 3.6,5.7 7.4,5.9 6.3,0.3 11.4,-3 14.2,-9 1.5,-3.2 2,-6.7 2.5,-10.1 1.1,-7.3 2.2,-14.5 3.2,-21.8 0,-0.1 0,-0.2 0.1,-0.4 h 9.5 c -1.9,12.5 -3.7,24.9 -5.6,37.5 z"
       id="path20" />
    <path
       class="cls-5"
       d="m 209.1,80.5 c 0.6,-3.7 1.1,-7.3 1.7,-11 h 9.5 c -3.8,25.5 -7.6,51 -11.4,76.5 h -9.5 c 0.3,-2.1 0.6,-4.1 0.9,-6.1 2.3,-15.4 4.6,-30.9 6.9,-46.3 0.6,-4.3 1.3,-8.6 1.9,-13.1 z"
       id="path22" />
    <path
       class="cls-1"
       d="m 67.2,125.4 c 0.3,-1.8 0.6,-3.6 1,-5.3 0.7,-3.3 4,-4.4 6.5,-2.2 5.2,4.5 10.3,9.1 15.5,13.6 4.8,4.2 9.7,8.4 14.5,12.6 0.2,0.2 0.4,0.4 0.6,0.6 0.7,0.8 0.4,1.7 -0.6,1.9 -0.3,0 -0.6,0 -0.8,0 -11.1,0 -22.1,0.1 -33.2,0.1 -2.8,0 -5.2,-1.7 -5.9,-4.3 -0.2,-0.9 -0.2,-1.8 0,-2.7 0.8,-4.8 1.7,-9.6 2.6,-14.4 z"
       id="path24" />
    <path
       class="cls-6"
       d="m 414,98.6 c 0,15.8 0,31.5 0,47.3 h -9.4 V 98.2 h 1.9 c 2.2,0 4.4,0 6.7,0 0.3,0 0.6,0.2 0.9,0.4 z"
       id="path26" />
    <path
       class="cls-5"
       d="m 410,87 c -4.2,0.5 -7,-2.7 -7.1,-5.7 0,-3.6 2.3,-6.2 5.8,-6.5 3.4,-0.3 6.4,2.2 6.8,5.5 0.4,3.4 -1.8,6.1 -5.5,6.7 z"
       id="path28" />
  </g>
</svg>
